<svg height="512" viewBox="0 0 512 512" width="512" xmlns="http://www.w3.org/2000/svg" xmlns:xlink="http://www.w3.org/1999/xlink"><linearGradient id="New_Gradient_Swatch_22" gradientUnits="userSpaceOnUse" x1="136" x2="376" y1="376" y2="136"><stop offset=".011" stop-color="#dcdce3"/><stop offset="1" stop-color="#ededf1"/></linearGradient><linearGradient id="New_Gradient_Swatch_2" gradientUnits="userSpaceOnUse" x1="200" x2="312" y1="184" y2="72"><stop offset=".011" stop-color="#f8c73f"/><stop offset="1" stop-color="#fada7f"/></linearGradient><linearGradient id="New_Gradient_Swatch_14" gradientUnits="userSpaceOnUse" x1="81.875" x2="254.125" y1="369.875" y2="197.625"><stop offset=".015" stop-color="#a6a6b9"/><stop offset="1" stop-color="#cacad5"/></linearGradient><linearGradient id="New_Gradient_Swatch_13" gradientUnits="userSpaceOnUse" x1="140" x2="196" y1="284" y2="228"><stop offset="0" stop-color="#d46669"/><stop offset="1" stop-color="#dd888a"/></linearGradient><linearGradient id="New_Gradient_Swatch_3" gradientUnits="userSpaceOnUse" x1="147.515" x2="188.485" y1="483.515" y2="442.544"><stop offset=".011" stop-color="#606082"/><stop offset="1" stop-color="#83839e"/></linearGradient><linearGradient id="New_Gradient_Swatch_14-2" x1="257.875" x2="430.125" xlink:href="#New_Gradient_Swatch_14" y1="369.875" y2="197.625"/><linearGradient id="New_Gradient_Swatch_3-2" x1="323.515" x2="364.485" xlink:href="#New_Gradient_Swatch_3" y1="483.515" y2="442.544"/><linearGradient id="New_Gradient_Swatch_13-2" x1="316" x2="372" xlink:href="#New_Gradient_Swatch_13" y2="228"/><linearGradient id="New_Gradient_Swatch_3-3" x1="234.515" x2="275.485" xlink:href="#New_Gradient_Swatch_3" y1="499.515" y2="458.544"/><linearGradient id="New_Gradient_Swatch_15" gradientUnits="userSpaceOnUse" x1="181.944" x2="330.056" y1="381.944" y2="233.833"><stop offset=".015" stop-color="#cacad5"/><stop offset="1" stop-color="#dcdce3"/></linearGradient><linearGradient id="New_Gradient_Swatch_13-3" x1="276" x2="332.926" xlink:href="#New_Gradient_Swatch_13" y1="428" y2="371.074"/><linearGradient id="New_Gradient_Swatch_13-4" gradientTransform="matrix(-1 0 0 1 512 0)" x1="356.463" x2="252.463" xlink:href="#New_Gradient_Swatch_13" y1="451.537" y2="347.537"/><g id="_20-rocket" data-name="20-rocket"><g id="linear_color" data-name="linear color"><path d="m256 16c-64 64-64 160-64 160v256h128v-256s0-96-64-160z" fill="url(#New_Gradient_Swatch_22)"/><path d="m256 16c-64 64-64 160-64 160h128s0-96-64-160z" fill="url(#New_Gradient_Swatch_2)"/><path d="m168 112s-24 16-24 64v256h48v-256c0-48-24-64-24-64z" fill="url(#New_Gradient_Swatch_14)"/><path d="m144 224h48v64h-48z" fill="url(#New_Gradient_Swatch_13)"/><path d="m168 432a24 24 0 0 1 24 24v24a0 0 0 0 1 0 0h-48a0 0 0 0 1 0 0v-24a24 24 0 0 1 24-24z" fill="url(#New_Gradient_Swatch_3)"/><path d="m344 112s-24 16-24 64v256h48v-256c0-48-24-64-24-64z" fill="url(#New_Gradient_Swatch_14-2)"/><path d="m344 432a24 24 0 0 1 24 24v24a0 0 0 0 1 0 0h-48a0 0 0 0 1 0 0v-24a24 24 0 0 1 24-24z" fill="url(#New_Gradient_Swatch_3-2)"/><path d="m320 224h48v64h-48z" fill="url(#New_Gradient_Swatch_13-2)"/><path d="m255 448a24 24 0 0 1 24 24v24a0 0 0 0 1 0 0h-48a0 0 0 0 1 0 0v-24a24 24 0 0 1 24-24z" fill="url(#New_Gradient_Swatch_3-3)"/><path d="m256 160s-24 16-24 96v176h48v-176c0-80-24-96-24-96z" fill="url(#New_Gradient_Swatch_15)"/><path d="m280 320s16 48 32 64 64 0 64 48h-96z" fill="url(#New_Gradient_Swatch_13-3)"/><path d="m232 320s-16 48-32 64-64 0-64 48h96z" fill="url(#New_Gradient_Swatch_13-4)"/><path d="m388 432c0-12.058-2.693-22.029-8-29.827v-226.173c0-53.8-28.146-73.186-29.344-73.984a12 12 0 0 0 -13.312 0c-.559.372-6.975 4.789-13.665 14.845-8.4-33.542-25.274-75.427-59.194-109.346a12 12 0 0 0 -16.97 0c-33.92 33.919-50.794 75.8-59.194 109.346-6.69-10.056-13.106-14.473-13.665-14.845a12 12 0 0 0 -13.312 0c-1.198.798-29.344 20.184-29.344 73.984v226.173c-5.307 7.8-8 17.769-8 29.827a11.993 11.993 0 0 0 10.119 11.838 35.82 35.82 0 0 0 -2.119 12.162v24a12 12 0 0 0 12 12h48a12 12 0 0 0 12-12v-24a35.829 35.829 0 0 0 -2.064-12h30.471a35.944 35.944 0 0 0 -13.407 28v24a12 12 0 0 0 12 12h48a12 12 0 0 0 12-12v-24a35.944 35.944 0 0 0 -13.407-28h32.471a35.829 35.829 0 0 0 -2.064 12v24a12 12 0 0 0 12 12h48a12 12 0 0 0 12-12v-24a35.82 35.82 0 0 0 -2.119-12.162 11.993 11.993 0 0 0 10.119-11.838zm-121 52h-24v-12a12 12 0 0 1 24 0zm-117.34-64c4.14-15.5 32.372-13.679 47.021-20 10.98-4.162 16.917-12.581 23.319-23.067v43.067zm6.34-184h24v40h-24zm71.763-48c-4.44 15.762-7.763 37.678-7.763 68v62.022a320.131 320.131 0 0 1 -16 38.189v-168.211zm-47.763 112v79.924c-2.158.465-4.43.892-6.681 1.313a136.95 136.95 0 0 0 -17.319 4.055v-85.292zm64 120v-164c0-41.14 6.563-63.715 12-75.357 5.438 11.642 12 34.217 12 75.357v164zm40.237-232h23.763v168.211a320.131 320.131 0 0 1 -16-38.189v-62.022c0-30.322-3.323-52.238-7.763-68zm71.763 88h-24v-40h24zm-24 24h24v85.292a136.95 136.95 0 0 0 -17.319-4.055c-2.251-.421-4.523-.848-6.681-1.313zm12-170.571c5.393 7.811 12 22.329 12 46.571v36h-24v-36c0-24.242 6.607-38.76 12-46.571zm-88-95.808c39.541 45.811 49.019 105.289 51.287 130.379h-32.782c-5.173-8.911-9.961-12.726-11.849-13.984a12 12 0 0 0 -13.312 0c-1.888 1.258-6.676 5.073-11.849 13.984h-32.781c2.269-25.1 11.749-84.572 51.286-130.379zm-88 95.808c5.393 7.811 12 22.329 12 46.571v36h-24v-36c0-24.242 6.607-38.76 12-46.571zm12 338.571h-24v-12a12 12 0 0 1 24 0zm112-91.064c6.4 10.484 12.34 18.907 23.32 23.067 14.65 6.319 42.878 4.5 47.02 20h-70.34zm64 91.064h-24v-12a12 12 0 0 1 24 0z"/></g></g></svg>